<mxfile host="app.diagrams.net" modified="2024-01-24T01:06:31.398Z" agent="Mozilla/5.0 (Windows NT 10.0; Win64; x64) AppleWebKit/537.36 (KHTML, like Gecko) Chrome/120.0.0.0 Safari/537.36" version="23.0.0" etag="7gMzyTldgQqnIN0epHs5" type="github">
  <diagram name="Page-1" id="90yP-K_0L4LCgbzRj07u">
    <mxGraphModel>
      <root>
        <mxCell id="0" />
        <mxCell id="1" parent="0" />
      </root>
    </mxGraphModel>
  </diagram>
</mxfile>
